<?xml version="1.0" encoding="UTF-8"?>
<svg id="Capa_1" data-name="Capa 1" xmlns="http://www.w3.org/2000/svg" viewBox="0 0 64 64">
  <path d="m63.66,8.72c.11,0,.22,0,.34,0v-2.94H0v2.92c.27,0,.53,0,.79.06.26.06.58.39.66.65.14.45.11.95.14,1.44,0,0-.02,0-.03,0,0,.07,0,.14,0,.21-.02,1.42-.44,1.98-1.56,1.9v.56h2.34v36.5H0v.94c.32-.02.68.06,1.07.22.15.06.32.26.33.4.05,1.03.08,2.05.07,3.08,0,.45-.34.59-.76.63-.27.02-.5.04-.71.05v2.91H63.99v-2.82c-.15,0-.31,0-.46,0-.74-.04-.99-.27-1.02-1-.03-.78-.01-1.57-.02-2.35,0-.52.25-.82.77-.87.16-.01.32-.04.48-.05.08,0,.16,0,.24,0v-1.06h-2.15V13.59h2.15v-.7c-.07,0-.15,0-.22,0-1.09.04-1.25-.07-1.33-1.14-.05-.62-.04-1.25,0-1.86.04-.83.38-1.13,1.22-1.18Zm-8.11.49c.22-.82,1.26-.47,1.94-.46.43,0,.86.2.82.8-.03.41,0,.83,0,1.25h0c0,.3,0,.6,0,.9-.01,1.07-.23,1.29-1.31,1.28-.37,0-.75-.03-1.09-.13-.18-.05-.43-.28-.43-.43-.03-1.07-.21-2.2.07-3.2Zm-7.25.91c.02-.51-.05-1.17.55-1.28.67-.12,1.4-.02,2.08.09.16.03.33.49.35.76.03.76.02,1.52-.04,2.28-.06.78-.38,1.06-1.17,1.03-.48-.02-.96-.14-1.41-.29-.16-.05-.31-.33-.33-.52-.05-.43-.02-.87-.02-1.31h-.01c0-.25,0-.51,0-.76Zm-7.08-.71c.02-.45.29-.71.77-.7,1.85.03,2.28-.32,2.15,1.99v1.25c0,.69-.4.99-1.03,1.04-.3.02-.6.02-.9,0-.6-.05-1.02-.3-1.01-.97,0-.87-.01-1.74.02-2.6Zm-7.18,1.23c.02-.32.02-.64.02-.96.01-.61.35-.93.93-.96,1.66-.07,2.25-.27,2.04,2.17,0,.39.02.78,0,1.17-.03.54-.3.82-.87.85-2.04.12-2.27-.15-2.12-2.28Zm-7.1-.98c.03-.56.32-.89.91-.92,2.2-.13,2.18.08,2.05,1.96,0,.41-.02.83,0,1.24.03.71-.35,1-1,1.02-1.73.05-1.95-.11-1.97-1.64,0-.55,0-1.11.02-1.66Zm-7.06-.19c.01-.45.26-.73.74-.74.25,0,.51,0,.76,0,1.27-.02,1.3-.02,1.41,1.25.06.73.02,1.46-.03,2.19-.01.19-.21.51-.35.53-.7.08-1.4.13-2.1.08-.17-.01-.43-.44-.44-.69-.05-.87-.03-1.75,0-2.63Zm-7.09,1.3c0-.32,0-.65,0-.97,0-.92.2-1.12,1.14-1.12,1.69,0,1.79.1,1.79,1.79,0,.48,0,.97,0,1.45,0,.57-.22.93-.83.97-.11,0-.23.04-.34.05-1.35.15-1.76-.21-1.76-1.56v-.62Zm-7.04-1.37c.02-.24.42-.46.66-.68.06-.05.18-.03.27-.04,1.76-.17,2.02.08,1.96,1.84,0,.11,0,.23,0,.35h0c0,.21.04.42,0,.62-.11.44-.13,1.1-.41,1.25-.76.41-1.67.29-2.47-.16-.02-1.06-.08-2.12,0-3.17Zm2.88,44.37c-.11.47-.16,1.25-.4,1.32-.67.2-1.43.11-2.15.08-.12,0-.31-.3-.32-.48-.05-.94-.07-1.87-.08-2.81,0-.5.32-.73.79-.78.11-.01.23-.04.34-.05,1.41-.2,1.81.14,1.81,1.54,0,.21,0,.41,0,.62,0,.18.03.38,0,.55Zm7.08.71c0,.48-.29.7-.72.79-.79.16-1.65.18-2.32-.37-.04-.85.09-1.72.1-2.58.01-.98.18-1.17,1.15-1.19.12,0,.23,0,.35,0,1.32-.01,1.37,0,1.47,1.29.05.68-.03,1.38-.04,2.06Zm7.09-1.21h-.02c0,.18.03.37,0,.55-.08.44.24,1.03-.35,1.3-.74.34-1.52.36-2.27,0-.12-.06-.23-.25-.24-.38-.03-1.01-.23-2.06,0-3.01.26-1.07,1.35-.52,2.09-.59.52-.05.8.29.79.82,0,.44,0,.88,0,1.31Zm7.05-.13c-.05.31-.04.63,0,.95.12.7-.04,1.12-.71,1.2-.75.09-1.48.47-2.21-1.03,0-.61-.02-1.22,0-1.83.02-1.11.36-1.43,1.47-1.4,1.47.05,1.72.49,1.45,2.12Zm7.16,1.13c-.03.64-.38,1.02-1.06,1.02-.61,0-1.23.08-1.81-.32-.07-.72-.04-1.45-.04-2.17,0-.04,0-.1.01-.14.08-.48.09-1.27.28-1.31.71-.17,1.48-.12,2.22-.05.16.02.38.45.4.71.05.76.04,1.52,0,2.28Zm7.07.39c-.05.24-.38.55-.61.59-.56.08-1.15.07-1.71-.01-.22-.03-.48-.34-.57-.58-.11-.31-.05-.68-.07-1.02.02,0,.04,0,.07,0-.03-.44-.07-.87-.08-1.31-.01-.87.29-1.18,1.14-1.19,1.81-.02,1.92.08,1.95,1.88.01.55,0,1.12-.12,1.65Zm6.99.07c-.02.21-.34.43-.58.58-.16.1-.4.09-.6.1-1.3.02-1.63-.29-1.66-1.56,0-.21,0-.42,0-.62,0-.02,0-.05,0-.07-.02-2.36.17-1.79,2.06-2.04.49-.07.86.22.87.68.03.98,0,1.96-.09,2.94Zm7.14-.11c-.01.23-.37.47-.61.63-.16.1-.4.09-.61.11-1.23.11-1.64-.26-1.64-1.5v-.69h-.02c0-.09,0-.18,0-.28-.02-1.57,1.09-2.28,2.58-1.62.14.06.3.26.3.4.03.98.06,1.97,0,2.95Zm.83-4.58h-.9c-13.14,0-26.27.01-39.41,0-4.29,0-8.59-.06-12.88-.07-.61,0-.79-.19-.79-.79.02-11.7.02-23.41.03-35.11,0-.16.03-.31.04-.52h53.91v36.48Z" style="fill: #fff;"/>
  <path d="m42.32,30.87l-19.35-11.17c-.87-.5-1.96.13-1.96,1.13v22.34c0,1.01,1.09,1.64,1.96,1.13l19.35-11.17c.87-.5.87-1.76,0-2.26Z" style="fill: #fff;"/>
</svg>