<?xml version="1.0" encoding="UTF-8"?>
<svg xmlns="http://www.w3.org/2000/svg" xmlns:xlink="http://www.w3.org/1999/xlink" viewBox="0 0 1280 820">
  <defs>
    <linearGradient id="Degradado_sin_nombre_4" data-name="Degradado sin nombre 4" x1="640" y1="44" x2="640" y2="0" gradientUnits="userSpaceOnUse">
      <stop offset="0" stop-color="#9c9c9c"/>
      <stop offset="1" stop-color="#f1f1f1"/>
    </linearGradient>
    <linearGradient id="Degradado_sin_nombre_41" data-name="Degradado sin nombre 41" x1="31" y1="34" x2="31" y2="10" gradientUnits="userSpaceOnUse">
      <stop offset="0" stop-color="#00c305"/>
      <stop offset="1" stop-color="#69ff78"/>
    </linearGradient>
    <linearGradient id="Degradado_sin_nombre_86" data-name="Degradado sin nombre 86" x1="67" y1="34" x2="67" y2="10" gradientUnits="userSpaceOnUse">
      <stop offset="0" stop-color="#aaac00"/>
      <stop offset="1" stop-color="#f0ff61"/>
    </linearGradient>
    <linearGradient id="Degradado_sin_nombre_84" data-name="Degradado sin nombre 84" x1="103" y1="34" x2="103" y2="10" gradientUnits="userSpaceOnUse">
      <stop offset="0" stop-color="#e14800"/>
      <stop offset=".99" stop-color="#ffc99d"/>
    </linearGradient>
  </defs>
  <g style="isolation: isolate;">
    <g id="Capa_1" data-name="Capa 1">
      <rect width="1280" height="820" rx="25" ry="25" style="fill: #fff;"/>
      <path d="m1255,0H25C11.19,0,0,11.19,0,25v19h1280v-19c0-13.81-11.19-25-25-25Z" style="fill: url(#Degradado_sin_nombre_4);"/>
      <circle cx="31" cy="22" r="12" style="fill: url(#Degradado_sin_nombre_41);"/>
      <circle cx="67" cy="22" r="12" style="fill: url(#Degradado_sin_nombre_86);"/>
      <circle cx="103" cy="22" r="12" style="fill: url(#Degradado_sin_nombre_84);"/>
    </g>
    <g id="Capa_2" data-name="Capa 2">
      <rect y="44" width="1280" height="101" style="fill: #1f305e;"/>
      <text transform="translate(399.1 445.64)" style="font-family: BwModelicaSS02-Bold, &apos;Bw Modelica SS02&apos;; font-size: 37.84px; font-weight: 700;"><tspan x="0" y="0" style="letter-spacing: -.07em;">T</tspan><tspan x="20.89" y="0">u sitio</tspan><tspan x="133.92" y="0" style="letter-spacing: -.02em;"> </tspan><tspan x="142.43" y="0" style="letter-spacing: -.01em;">w</tspan><tspan x="176.79" y="0">eb es la car</tspan><tspan x="386.66" y="0" style="letter-spacing: 0em;">t</tspan><tspan x="401.42" y="0" style="letter-spacing: 0em;">a de</tspan><tspan x="-20.55" y="45.41">p</tspan><tspan x="5.18" y="45.41" style="letter-spacing: -.02em;">r</tspan><tspan x="19.71" y="45.41" style="letter-spacing: 0em;">ese</tspan><tspan x="85.48" y="45.41" style="letter-spacing: -.01em;">n</tspan><tspan x="109.81" y="45.41" style="letter-spacing: 0em;">t</tspan><tspan x="124.57" y="45.41" style="letter-spacing: 0em;">ación de</tspan><tspan x="283.28" y="45.41" style="letter-spacing: 0em;"> </tspan><tspan x="292.29" y="45.41" style="letter-spacing: 0em;">tu negoci</tspan><tspan x="467.57" y="45.41" style="letter-spacing: 0em;">o</tspan><tspan x="492.05" y="45.41">.</tspan></text>
      <g>
        <g>
          <rect x="300.39" y="537.75" width="163.22" height="105.25" style="fill: #1f305e;"/>
          <rect x="472.39" y="537.75" width="163.22" height="105.25" style="fill: #1f305e;"/>
          <rect x="644.39" y="537.75" width="163.22" height="105.25" style="fill: #1f305e;"/>
          <rect x="816.39" y="537.75" width="163.22" height="105.25" style="fill: #1f305e;"/>
        </g>
        <g>
          <rect x="300.39" y="650.75" width="163.22" height="105.25" style="fill: #1f305e;"/>
          <rect x="472.39" y="650.75" width="163.22" height="105.25" style="fill: #1f305e;"/>
          <rect x="644.39" y="650.75" width="163.22" height="105.25" style="fill: #1f305e;"/>
          <rect x="816.39" y="650.75" width="163.22" height="105.25" style="fill: #1f305e;"/>
        </g>
      </g>
      <g>
        <path d="m727.81,295.08l-55.8-32.21c-1.84-1.06-4.82-1.06-6.66,0l-118.24,68.28c-1.84,1.06-1.84,2.78,0,3.84l55.8,32.21c1.84,1.06,4.82,1.06,6.66,0l118.24-68.28c1.84-1.06,1.84-2.78,0-3.84Z" style="fill: #6b99d1; mix-blend-mode: multiply; opacity: .15;"/>
        <path d="m558.08,299.39l10.66-6.15c7.23-4.17,17.21-5.18,22.3-2.24,5.09,2.94,3.35,8.7-3.88,12.87l-10.66,6.15c-7.23,4.17-17.21,5.18-22.3,2.24-5.09-2.94-3.35-8.7,3.88-12.87Z" style="fill: #6b99d1; mix-blend-mode: multiply; opacity: .15;"/>
        <g>
          <g>
            <path d="m570.83,290.15c-.47,1.38.14,2.55.54,3.72.77,2.29.59,5.37.59,5.37.15.27,1.12.35,1.39-.08,0,0-.12-5.06,1.22-4.66l-3.74-4.36Z" style="fill: #2d2979;"/>
            <path d="m582.28,298.03c-1.4-2-3.61-8.44-4.05-9.96-.19-.64-.69-1.93-.66-3.18.06-2.23.74-8.46.74-8.46l-5.36.02.09,8.07c-.04,1.23-.08,1.57-.43,2.48-.28.71-.96,2.43-1.2,3.17-.26.95-.72,1.96.82,3.19,1.54,1.23,2.46,1.95,3.46,3.19,1,1.24.93,2.89,2.55,4.36,1.62,1.47,4.68.34,5.26-.16.82-.71.54-1.34-1.2-2.71Z" style="fill: #ffa8a7;"/>
            <path d="m582.05,299.72c-3.41.84-4.09.39-5.07-3.45-.75-2.94-1.42-5.05-2.72-6.18-1.55-1.35-1.66-2.13-1.67-3.09-.34-.03-.51.22-.72.97-.5,1.7-1.13,1.76-1.15,2.97-.02,1.22.8,2.28,1.71,2.87,1.5.98,1.91,1.41,2.6,2.85.82,1.69.65,3.57,1.21,5.15,2.37,1.84,4.91,3.04,8.74,1.27.73-1.94,1.34-2.82-2.69-5.05.74.85,1.07,1.37-.22,1.68Z" style="fill: #2d2979;"/>
          </g>
          <g>
            <path d="m561.71,292.33c-.34.9-1,1.93-.81,4.28.19,2.36.7,1.87.54,5.01-.1,1.94-1.03,4.4-.01,5.87,1.77,1.76,6.43,1.52,7.4.58.25-.82.49-1.64.35-2.39-.12-.65-1.18-1.34-1.35-1.99-.13-.53-.3-1.15-.48-2.03-.57-2.81-1.21-9.35-1.21-9.35h-4.42Z" style="fill: #2d2979;"/>
            <path d="m565.33,304.74c-.98.06-2.13-.35-2.13-.35-.34-.18-.57-.64-.65-1.2-.22-1.48.27-3.3-.38-5.36-.66-2.06-.79-3.29-.45-5.5.34-2.21.06-5.56.06-5.56l4.53-.1s-.19,3.71-.17,5.64c.02,1.93.4,7.98.8,9.96.2.99.36,1.38.25,1.8,0,0-.38.58-1.85.66Z" style="fill: #ffa8a7;"/>
          </g>
          <path d="m572.72,166c-1.02-1.63-8.77-2.7-11.32,3.87-.97,2.49-.82,8.86-1.63,12.87-.81,4-2.72,6.27-3.4,9.52-.69,3.25.43,8.69,8.26,9.65,7.82.96,13.84-1.79,15.69-4.28s1.89-7.8-.03-10.64c-1.92-2.85-3.38-5.16-3.33-8.87l-4.23-12.11Z" style="fill: #543354;"/>
          <path d="m611.67,209.78c-1.01.34-2.02.26-3.41.86-1.22.53-2.04.83-3.26.99-1.23.16-4.92-1.05-8.17-2.69-3.83-1.94-7.89-5.65-9.43-7.5-3.32-3.98-6.96-10.04-8.08-12.24-1.35-2.64-3.08-3.07-4.73-2.87-1.93.23-2.77,1.37-.79,4.93,1.99,3.56,6.03,9.92,9.88,13.92,1.87,1.94,4.93,4.84,9.84,7.35,3.43,1.75,6.43,2.75,10.17,3.69,1.02.26,1.71.7,3.6,1.42,1.88.72,4.23,1.09,5.9.81,1.66-.28,2.22-.64,2.31-1,.11-.45-.25-.7-1.03-.66-.77.04-2.05.24-3.66-.2,0,0,1.7,0,2.72-.1,1.02-.09,1.99-.34,2.65-.6.82-.32,1.12-1.59.34-1.57-.79.02-1.38.25-2.89.36-1.37.1-2.4-.09-2.4-.09,0,0,1.63-.21,2.96-.64,1.33-.43,1.79-.89,2.07-1.2.29-.31.23-1.09-.74-.94-.87.14-1.91.69-3.6.7-1.23,0-2.11-.16-1.94-.35.16-.19.89-.14,1.84-.64.91-.48,1.52-1.49,1.21-1.98-.31-.49-.34-.13-1.36.21Z" style="fill: #ffa8a7;"/>
          <path d="m572.6,166.08s2.77-2.37,6.09,1.01c2.12,2.16,2.02,6.35,1.55,8.19-.47,1.84-2.18,4.06-3.65,4.2-1.47.14-3.99-13.41-3.99-13.41Z" style="fill: #543354;"/>
          <path d="m558.7,223.89c-1.59,6.93.58,17.89.94,23.57.36,5.68.89,12.29.89,12.29,0,0-1.72,6-1.62,10.62.1,4.91,3.02,18.95,3.02,18.95,0,0,1.84,1.36,4.19-.01,0,0,.69-12.16,1.34-17.79.68-5.88.9-10.17,1.49-13.6.74-4.28,2.43-27.15,2.43-27.15l.19,3.46,2.08,22.55s-1.49,3.25-1.48,5.86c.01,3.59.77,20.45.77,20.45,0,0,2.03,1.55,4.53.02,0,0,3.54-23.14,4.05-25.85.46-2.51,1.5-28.52-.56-34.57l-22.25,1.21Z" style="fill: #ffa8a7;"/>
          <path d="m565.36,180.79s.38,6.51.26,6.99c-.12.48-2.56.94-3.24,1.51-.68.57,3.54,7.17,5.69,8.15,2.15.98,8.8-1.52,9.26-4.83.43-3.05-1.9-5.41-2.8-6.24-.6-.13-1.56,0-1.83-.05l-.19-3.16c-2.91-.93-7.14-2.38-7.14-2.38Z" style="fill: #ffa8a7;"/>
          <path d="m564.47,188.41c-1.83.28-3.92,1.26-4.21,2.26-.34,1.17-1.06,6.68.52,10.87,1.58,4.19,3.44,7.03,4.35,8.83,0,0,6.93,2.14,13.31-1.82,0,0,.64-3.41.67-5.81,5.89-5.14.85-11.47-4.14-16.39-.49-.07-1.33-.05-1.8-.02,0,0,2.95,7.55,1.36,8.25-2.31,1.03-7.95-4.98-10.07-6.17Z" style="fill: #f5fbfb;"/>
          <path d="m572.66,185.72l-.16-2.56-2.07-.67-5.07-1.7s.06,1.18.1,2.04c0,0,.21,2.23,3.89,3.95.65.3,3.1.53,3.3-1.06Z" style="fill: #f28f8f;"/>
          <path d="m577.52,172.72h0c-.66-4.18-3.68-7.34-7.99-7.09-4.59.27-8.09,4.21-7.82,8.79.16,2.68,1.59,4.96,3.65,6.36,0,0,.39,1.51.66,1.83,1.53,1.78,5.59,2.91,6.93,2.93,1.16.01,2.16-1.07,3.24-2.86,2.26-3.74,1.69-7.89,1.33-9.95Z" style="fill: #ffa8a7;"/>
          <path d="m577.21,170.12c-1.84-3.78-5.5-5.1-9.02-4.41-3.02.59-5.34,2.85-6.16,5.82-1.08,3.9.56,7.37,3.33,9.26-.09-.28-2.29-3.53-.05-4.25.04.31.09,1.47.21,2.2,0,0,1.1.08,1.06-1.3-.01-.37-.08-1-.07-1.3.02-1-.02-1.67.55-2.53.25-.37.36-.79.51-1.26.37-1.17,1.21-2.18,2.37-2.57,1.1-.37,2.61-.28,4.25,1.56,1.66-2.65,2.47-1.77,3.03-1.22Z" style="fill: #543354;"/>
          <path d="m565.36,180.79s-.2.42-1.01.46c-1.51.08-3.29-2.73-2.08-4.64.76-1.2,2.48-.78,3.04-.07l.05,4.25Z" style="fill: #ffa8a7;"/>
          <path d="m564.68,209.52c.45.84.54,2.06-.94,4.22-1.48,2.16-4.49,6.55-5.03,10.14,1.19,1.26,2.89,3.85,8.04,4.65,7.41,1.15,12.93-2.12,14.67-4.03,0,0-.1-3.11-1.42-8.73-.79-3.38-1.23-4.59-1.55-7.23-.32-2.64-13.76.97-13.76.97Z" style="fill: #f5fbfb;"/>
          <path d="m564.35,212.25c-.84,1.42-1.54,2.63-3.12,4.83-1.52,2.11-4.48,6.74-3.77,14.83.47,5.29,3.07,27.83,3.07,27.83,0,0-1.32,3.86-1.73,8.68s2.94,20.99,2.94,20.99c0,0,.8.75,2.42.72,1.62-.04,2.13-.87,2.13-.87,0,0,.6-9.01.92-13.69.32-4.68,1.16-12.12,1.4-13.97.24-1.86.84-5.1,1.12-8.74.28-3.64,1.65-22.11,1.65-22.11l.19,3.46s.18,5.62.99,12.55c.81,6.93,1.09,10.01,1.09,10.01,0,0-1.4,2.57-1.58,4.48-.18,1.9.87,21.83.87,21.83,0,0,.67,1.1,2.5,1.3,1.86.2,2.33-.34,2.33-.34,0,0,2.93-20.89,3.28-23.02.35-2.13.65-3.18,1.05-9.88.41-6.7.26-21.25-.42-26.53-.68-5.28-2.62-12.95-2.62-12.95,0,0-2.45,1.28-5.86,1.45-3.41.17-8.86-.86-8.86-.86Z" style="fill: #c4d9ff;"/>
          <path d="m579.11,224.51s-.76,1.72-2.85,3.64c-2.1,1.92-4.88,2.6-4.88,2.6l.19,3.46s.18,5.62.99,12.55c.44,3.79.73,6.42.89,8.03h0l-.24-22.71c5.15-2.31,5.9-7.57,5.9-7.57Z" style="fill: #aacaf9;"/>
          <path d="m564.95,210.33s4.75,1.42,8.17,1.11c3.79-.34,4.99-1.38,5.43-2.09,0,0,.57,1.35.51,2.31-1.65,1.91-3.76,2.36-6.8,2.35-3.47,0-7.36-1.3-7.92-1.76,0,0,.47-1.08.6-1.92Z" style="fill: #7fa8e6;"/>
          <path d="m566.2,234.05c-.87-.62-1.4-1.48-2.7-2.25-1.14-.68-1.87-1.16-2.72-2.06-.85-.9-2.05-4.6-2.62-8.19-.68-4.24-.06-9.71.53-12.04,1.28-5.03,4.03-11.53,5.15-13.73,1.34-2.64.93-4.47-.46-5.51-1.56-1.17-3.05-.66-4.45,2.26-1.77,3.67-4.48,10.7-5.45,16.18-.47,2.65-1.02,6.83-.17,12.28.6,3.81,1.56,6.82,2.99,10.4.39.98.44,1.8.97,3.74.53,1.95,1.6,4.07,2.81,5.25,1.2,1.18,1.82,1.42,2.17,1.28.43-.17.42-.62-.07-1.22-.49-.6-1.4-1.52-1.99-3.08,0,0,1,1.37,1.67,2.14.67.77,1.44,1.41,2.04,1.79.74.47,1.94-.03,1.47-.65-.48-.62-1.01-.97-1.99-2.12-.89-1.05-1.33-1.99-1.33-1.99,0,0,1.13,1.19,2.26,2.01,1.13.82,1.77.93,2.19.97.42.05,1.02-.46.33-1.15-.62-.62-1.68-1.14-2.68-2.51-.73-.99-1.11-1.8-.86-1.78.25.02.63.64,1.6,1.11.92.46,2.1.36,2.31-.18.22-.54-.1-.36-.97-.97Z" style="fill: #ffa8a7;"/>
        </g>
        <g>
          <g style="opacity: .9;">
            <path d="m699.42,200.36l32.88-18.99c1.08-.63,1.96-.12,1.96,1.13v23.8c0,1.25-.88,2.77-1.96,3.4l-32.88,18.99c-1.08.63-1.96.12-1.96-1.13v-23.8c0-1.25.88-2.77,1.96-3.4Z" style="fill: #57f7e0; opacity: .8;"/>
            <path d="m699.42,200.36l32.88-18.99c1.08-.63,1.96-.12,1.96,1.13v23.8c0,1.25-.88,2.77-1.96,3.4l-32.88,18.99c-1.08.63-1.96.12-1.96-1.13v-23.8c0-1.25.88-2.77,1.96-3.4Z" style="fill: none; stroke: #e9fffb; stroke-miterlimit: 10;"/>
            <path d="m701.51,203.92l13.38-7.72c.54-.31.98-.06.98.57v.06c0,.63-.44,1.39-.98,1.7l-13.37,7.72c-.54.31-.98.06-.98-.57v-.06c0-.63.44-1.39.98-1.7Z" style="fill: #0b3fa5; opacity: .8;"/>
            <path d="m718.7,193.99l11.53-6.65c.54-.31.98-.06.98.57v.06c0,.63-.44,1.39-.98,1.7l-11.53,6.65c-.54.31-.98.06-.98-.57v-.05c0-.63.44-1.39.98-1.7Z" style="fill: #0b3fa5; opacity: .8;"/>
            <g style="opacity: .8;">
              <g>
                <path d="m701.51,214.83l13.38-7.72c.54-.31.98-.06.98.57v.06c0,.63-.44,1.39-.98,1.7l-13.37,7.72c-.54.31-.98.06-.98-.57v-.06c0-.63.44-1.39.98-1.7Z" style="fill: #0b3fa5;"/>
                <path d="m718.7,204.91l11.53-6.66c.54-.31.98-.06.98.57v.06c0,.63-.44,1.39-.98,1.7l-11.53,6.65c-.54.31-.98.06-.98-.57v-.05c0-.63.44-1.39.98-1.7Z" style="fill: #0b3fa5;"/>
              </g>
            </g>
            <g style="opacity: .8;">
              <g>
                <path d="m701.51,209.37l7.24-4.18c.54-.31.98-.06.98.57v.06c0,.63-.44,1.39-.98,1.7l-7.24,4.18c-.54.31-.98.06-.98-.57v-.06c0-.63.44-1.39.98-1.7Z" style="fill: #0b3fa5;"/>
                <path d="m712,203.32l6.14-3.57c.54-.31.98-.06.98.56v.06c0,.63-.44,1.39-.98,1.7l-6.14,3.57c-.54.31-.98.06-.98-.56v-.05c0-.63.44-1.39.98-1.7Z" style="fill: #0b3fa5;"/>
                <path d="m721.62,197.73l8.6-4.94c.54-.31.98-.06.98.57v.06c0,.63-.44,1.39-.98,1.7l-8.6,4.94c-.54.31-.98.06-.98-.57v-.05c0-.63.44-1.39.98-1.7Z" style="fill: #0b3fa5;"/>
              </g>
            </g>
            <g style="opacity: .8;">
              <g>
                <path d="m701.51,220.35l11.67-6.72c.54-.31.98-.06.98.57v.06c0,.63-.44,1.39-.98,1.7l-11.67,6.72c-.54.31-.98.06-.98-.57v-.06c0-.63.44-1.39.98-1.7Z" style="fill: #0b3fa5;"/>
                <path d="m716.43,211.75l6.14-3.57c.54-.31.98-.06.98.56v.06c0,.63-.44,1.39-.98,1.7l-6.14,3.57c-.54.31-.98.06-.98-.56v-.06c0-.63.44-1.39.98-1.7Z" style="fill: #0b3fa5;"/>
                <path d="m726.05,206.17l4.17-2.4c.54-.31.98-.06.98.57v.06c0,.63-.44,1.39-.98,1.7l-4.17,2.4c-.54.31-.98.06-.98-.57v-.05c0-.63.44-1.39.98-1.7Z" style="fill: #0b3fa5;"/>
              </g>
            </g>
          </g>
          <g>
            <g>
              <path d="m729.18,288.86h0v-7.52l-8.46,3.6-51.4-29.66c-1.84-1.06-4.82-1.06-6.66,0l-97.41,56.25-19.53,5.91v7.52h0v.02h0c0,.69.46,1.38,1.38,1.91l55.8,32.22c1.84,1.06,4.82,1.06,6.66,0l118.24-68.28c.93-.54,1.39-1.25,1.37-1.95Z" style="fill: #c8e2ff;"/>
              <path d="m545.73,317.43v7.52h0v.02h0c0,.69.46,1.38,1.38,1.91l55.8,32.22c.92.53,2.12.8,3.33.8v-34.38l-32.22-19.05-8.76,5.06-19.53,5.91Z" style="fill: #a5cbfa;"/>
              <path d="m721.02,281.53l-13.68-7.89c-1.23-.71-3.21-.71-4.44,0l-.77.44c-1.23.71-3.21.71-4.44,0l-16.38-9.46c-1.23-.71-1.23-1.85,0-2.56l.77-.44c1.23-.71,1.23-1.86,0-2.56l-13.86-7.99c-1.23-.71-3.21-.71-4.44,0l-110.01,63.55c-1.23.71-1.23,1.85,0,2.56l52.8,30.47c1.23.71,3.21.71,4.44,0l110.01-63.55c1.23-.71,1.23-1.85,0-2.56Z" style="fill: #031f60;"/>
              <polygon points="705.12 272.35 723.3 282.78 720.79 287.41 705.12 278.36 705.12 272.35" style="fill: #1e3779;"/>
              <polygon points="666.01 255.79 666.01 249.78 684.3 260.34 679.1 263.34 666.01 255.79" style="fill: #1e3779;"/>
              <path d="m611.01,347.64l109.56-63.29-13.23-7.63c-1.23-.71-3.21-.71-4.44,0l-.77.44c-1.23.71-3.21.71-4.44,0l-16.38-9.46c-1.23-.71-1.23-1.85,0-2.56l.45-.26-.45-.26c-1.23-.71-1.23-1.85,0-2.56l.32-.18-13.41-7.73c-1.23-.71-3.21-.71-4.44,0l-109.56,63.29,52.35,30.21c1.23.71,3.21.71,4.44,0Z" style="fill: #344593;"/>
              <path d="m707.34,276.72c-1.23-.71-3.21-.71-4.44,0l-.77.44c-1.23.71-3.21.71-4.44,0l-16.38-9.46c-1.23-.71-1.23-1.85,0-2.56l.45-.26-.45-.26c-1.23-.71-1.23-1.85,0-2.56l.32-.18-13.41-7.73c-.61-.35-1.42-.53-2.22-.53,0,0,7.32,18.46,1.07,37.85-5.82,18.09-39.76,46.39-53.41,54.64l106.9-61.75-13.23-7.63Z" style="fill: #2b3d89;"/>
              <path d="m680.4,263.34v3.08c0,.52.34.94.92,1.28l16.38,9.46c.57.34,1.33.53,2.35.53v-3.95s-19.64-10.39-19.64-10.39Z" style="fill: #1e3779;"/>
              <path d="m727.81,279.44l-55.8-32.22c-1.84-1.06-4.82-1.06-6.66,0l-118.24,68.28c-1.84,1.06-1.84,2.78,0,3.84l55.8,32.21c1.84,1.06,4.82,1.06,6.66,0l118.24-68.28c1.84-1.06,1.84-2.78,0-3.84Zm-6.79,4.65l-110.01,63.55c-1.23.71-3.21.71-4.44,0l-52.8-30.47c-1.23-.71-1.23-1.85,0-2.56l110.01-63.55c1.23-.71,3.21-.71,4.44,0l13.86,7.99c1.23.71,1.23,1.85,0,2.56l-.77.44c-1.23.71-1.23,1.86,0,2.56l16.38,9.46c1.23.71,3.21.71,4.44,0l.77-.44c1.23-.71,3.21-.71,4.44,0l13.68,7.89c1.23.71,1.23,1.86,0,2.56Z" style="fill: #dceeff;"/>
              <g style="opacity: .4;">
                <polygon points="592.3 292.36 601.82 286.86 596.72 286.86 587.19 292.36 592.3 292.36" style="fill: #fafdff;"/>
                <polygon points="628.14 271.65 647.2 260.65 642.12 260.65 623.05 271.65 628.14 271.65" style="fill: #fafdff;"/>
                <path d="m667.02,250.65c.44.09.86.21,1.21.42l6.04,3.48h10.41l-6.75-3.9h-10.91Z" style="fill: #fafdff;"/>
                <path d="m652.68,254.54h5.08l6.03-3.48c.35-.2.77-.33,1.21-.42h-5.56l-6.75,3.9Z" style="fill: #fafdff;"/>
                <path d="m682.95,260.65c-.11.36-.39.7-.87.97l-.77.44c-1.23.71-1.23,1.86,0,2.56l12.18,7.03h20.81l-19.07-11.01h-12.29Z" style="fill: #fafdff;"/>
                <polygon points="564.64 308.34 583.7 297.33 578.59 297.33 559.52 308.34 564.64 308.34" style="fill: #fafdff;"/>
                <polygon points="605.69 347.13 586.61 336.12 576.16 336.12 595.23 347.13 605.69 347.13" style="fill: #fafdff;"/>
                <polygon points="716.23 286.86 706.7 292.36 712.09 292.36 721.62 286.86 716.23 286.86" style="fill: #fafdff;"/>
                <polygon points="698.11 297.33 679.05 308.34 684.43 308.34 703.49 297.33 698.11 297.33" style="fill: #fafdff;"/>
                <polygon points="578 331.16 568.47 325.65 558.03 325.65 567.56 331.16 578 331.16" style="fill: #fafdff;"/>
                <polygon points="649.07 325.65 639.55 331.16 644.91 331.16 654.44 325.65 649.07 325.65" style="fill: #fafdff;"/>
                <polygon points="630.95 336.12 611.89 347.13 617.24 347.13 636.3 336.12 630.95 336.12" style="fill: #fafdff;"/>
              </g>
              <path d="m689.13,263.13l7.95,4.59c.68.39.8.96.27,1.27-.53.31-1.52.24-2.2-.16l-7.95-4.59c-.68-.39-.8-.96-.27-1.27.53-.31,1.52-.24,2.2.16Z" style="fill: #031f60;"/>
              <path d="m570.85,337.11c0-.86,1.81-.51,4.04.78,2.23,1.29,4.04,3.03,4.04,3.89v1.56s-8.08-4.67-8.08-4.67v-1.56Z" style="fill: #7aa3e5;"/>
              <g>
                <g>
                  <path d="m581.44,344.28c0,.33.23.72.51.89.28.16.51.03.51-.29s-.23-.72-.51-.89c-.28-.16-.51-.03-.51.29Z" style="fill: #7aa3e5;"/>
                  <path d="m583.96,345.74c0,.33.23.72.51.89.28.16.51.03.51-.29s-.23-.72-.51-.89c-.28-.16-.51-.03-.51.29Z" style="fill: #7aa3e5;"/>
                  <path d="m586.48,347.19c0,.33.23.72.51.89.28.16.51.03.51-.29s-.23-.72-.51-.88c-.28-.16-.51-.03-.51.29Z" style="fill: #7aa3e5;"/>
                  <path d="m589,348.65c0,.33.23.72.51.89.28.16.51.03.51-.29s-.23-.72-.51-.89c-.28-.16-.51-.03-.51.29Z" style="fill: #7aa3e5;"/>
                  <path d="m591.52,350.1c0,.33.23.72.51.89.28.16.51.03.51-.29s-.23-.72-.51-.89c-.28-.16-.51-.03-.51.29Z" style="fill: #7aa3e5;"/>
                  <path d="m594.04,351.56c0,.33.23.72.51.89.28.16.51.03.51-.3s-.23-.72-.51-.89c-.28-.16-.51-.03-.51.29Z" style="fill: #7aa3e5;"/>
                  <path d="m596.57,353.02c0,.33.23.72.51.89.28.16.51.03.51-.29s-.23-.72-.51-.89c-.28-.16-.51-.03-.51.29Z" style="fill: #7aa3e5;"/>
                </g>
                <g>
                  <path d="m581.37,341.65c0,.33.23.72.51.89.28.16.51.03.51-.3s-.23-.72-.51-.89c-.28-.16-.51-.03-.51.3Z" style="fill: #7aa3e5;"/>
                  <path d="m583.89,343.11c0,.33.23.72.51.89.28.16.51.03.51-.3s-.23-.72-.51-.89c-.28-.16-.51-.03-.51.29Z" style="fill: #7aa3e5;"/>
                  <path d="m586.42,344.56c0,.33.23.72.51.89.28.16.51.03.51-.29s-.23-.72-.51-.89c-.28-.16-.51-.03-.51.29Z" style="fill: #7aa3e5;"/>
                  <path d="m588.94,346.02c0,.33.23.72.51.89.28.16.51.03.51-.3s-.23-.72-.51-.89c-.28-.16-.51-.03-.51.3Z" style="fill: #7aa3e5;"/>
                  <path d="m591.46,347.48c0,.33.23.72.51.89.28.16.51.03.51-.29s-.23-.72-.51-.89c-.28-.16-.51-.03-.51.29Z" style="fill: #7aa3e5;"/>
                  <path d="m593.98,348.93c0,.33.23.72.51.89s.51.03.51-.29-.23-.72-.51-.89c-.28-.16-.51-.03-.51.29Z" style="fill: #7aa3e5;"/>
                  <path d="m596.5,350.39c0,.33.23.72.51.89.28.16.51.03.51-.3s-.23-.72-.51-.89c-.28-.16-.51-.03-.51.3Z" style="fill: #7aa3e5;"/>
                </g>
              </g>
              <g>
                <g>
                  <path d="m551.78,327.15c0,.33.23.72.51.89.28.16.51.03.51-.3s-.23-.72-.51-.89c-.28-.16-.51-.03-.51.3Z" style="fill: #7aa3e5;"/>
                  <path d="m554.3,328.61c0,.33.23.72.51.89.28.16.51.03.51-.29s-.23-.72-.51-.89c-.28-.16-.51-.03-.51.29Z" style="fill: #7aa3e5;"/>
                  <path d="m556.82,330.06c0,.33.23.72.51.89.28.16.51.03.51-.29s-.23-.72-.51-.89c-.28-.16-.51-.03-.51.29Z" style="fill: #7aa3e5;"/>
                  <path d="m559.34,331.52c0,.33.23.72.51.89.28.16.51.03.51-.3s-.23-.72-.51-.89c-.28-.16-.51-.03-.51.3Z" style="fill: #7aa3e5;"/>
                  <path d="m561.87,332.97c0,.33.23.72.51.89.28.16.51.03.51-.29s-.23-.72-.51-.89c-.28-.16-.51-.03-.51.29Z" style="fill: #7aa3e5;"/>
                  <path d="m564.39,334.43c0,.33.23.72.51.89.28.16.51.03.51-.29s-.23-.72-.51-.89c-.28-.16-.51-.03-.51.29Z" style="fill: #7aa3e5;"/>
                  <path d="m566.91,335.89c0,.33.23.72.51.89.28.16.51.03.51-.29s-.23-.72-.51-.89c-.28-.16-.51-.03-.51.3Z" style="fill: #7aa3e5;"/>
                </g>
                <g>
                  <path d="m551.72,324.52c0,.33.23.72.51.89.28.16.51.03.51-.29s-.23-.72-.51-.89c-.28-.16-.51-.03-.51.29Z" style="fill: #7aa3e5;"/>
                  <path d="m554.24,325.98c0,.33.23.72.51.89.28.16.51.03.51-.29s-.23-.72-.51-.89c-.28-.16-.51-.03-.51.3Z" style="fill: #7aa3e5;"/>
                  <path d="m556.76,327.43c0,.33.23.72.51.89.28.16.51.03.51-.3s-.23-.72-.51-.89c-.28-.16-.51-.03-.51.29Z" style="fill: #7aa3e5;"/>
                  <path d="m559.28,328.89c0,.33.23.72.51.89.28.16.51.03.51-.29s-.23-.72-.51-.89c-.28-.16-.51-.03-.51.29Z" style="fill: #7aa3e5;"/>
                  <path d="m561.8,330.35c0,.33.23.72.51.89.28.16.51.03.51-.29,0-.33-.23-.72-.51-.89-.28-.16-.51-.03-.51.29Z" style="fill: #7aa3e5;"/>
                  <path d="m564.32,331.8c0,.33.23.72.51.89.28.16.51.03.51-.3,0-.33-.23-.72-.51-.89-.28-.16-.51-.03-.51.3Z" style="fill: #7aa3e5;"/>
                  <path d="m566.84,333.26c0,.33.23.72.51.89.28.16.51.03.51-.29s-.23-.72-.51-.89c-.28-.16-.51-.03-.51.29Z" style="fill: #7aa3e5;"/>
                </g>
              </g>
              <path d="m698.27,269.48c-.52.3-.52.78,0,1.08.52.3,1.35.3,1.87,0,.52-.3.52-.78,0-1.08-.52-.3-1.35-.3-1.87,0Z" style="fill: #031f60;"/>
            </g>
            <g style="opacity: .6;">
              <path d="m660.02,242.73c0-5.75-4.08-8.11-9.06-5.23l-.09.05c-4.98,2.88-9.38,9.93-9.78,15.67l-.39,5.73c-.22,3.17-3.26,7.39-6.8,9.43-3.54,2.04-6.4.35-6.41-3.78v-5.12c0-4.63-3.29-6.52-7.3-4.21h0c-3.81,2.19-7.22,7.58-7.58,11.96l-.55,6.67c-.34,4.1-3.53,9.13-7.09,11.19l-.57.33c-3.56,2.06-6.81.39-7.23-3.7l-2.89-28.52c-.58-5.73-5.13-8.06-10.12-5.18l-.09.05c-4.98,2.88-9.06,9.94-9.06,15.7v59.65l85.01-49.08v-31.6Z" style="fill: #57f7e0;"/>
              <path d="m660.02,274.33v-31.6c0-5.75-4.08-8.11-9.06-5.23l-.09.05c-4.98,2.88-9.38,9.93-9.78,15.67l-.39,5.73c-.22,3.17-3.26,7.39-6.8,9.43-3.54,2.04-6.4.35-6.41-3.78v-5.12c0-4.63-3.29-6.52-7.3-4.21h0c-3.81,2.19-7.22,7.58-7.58,11.96l-.55,6.67c-.34,4.1-3.53,9.13-7.09,11.19l-.57.33c-3.56,2.06-6.81.39-7.23-3.7l-2.89-28.52c-.58-5.73-5.13-8.06-10.12-5.18l-.09.05c-4.98,2.88-9.06,9.94-9.06,15.7v59.65" style="fill: none; stroke: #e9fffb; stroke-linecap: round; stroke-miterlimit: 10;"/>
            </g>
            <g>
              <path d="m664.4,271.68c-.33,4.11-3.51,9.12-7.09,11.17-3.64,2.09-7.06.45-7.71-3.63,0,0-.42-2.66-.94-5.95-.52-3.29-3.4-4.53-6.43-2.78-3.04,1.75-6.01,6.48-6.63,10.56l-1.28,8.35c-.63,4.08-3.48,8.74-6.37,10.41-2.89,1.67-5.66-.29-6.19-4.39l-2.46-14.29c-.98-5.7-5.83-7.97-10.84-5.08l-.09.05c-5,2.89-9.06,9.92-9.06,15.69v45.63l85.01-49.08v-59.65c0-5.78-3.66-8.36-8.16-5.77-4.51,2.59-8.54,9.36-9.01,15.12l-2.73,33.62Z" style="fill: #57f7e0; opacity: .8;"/>
              <path d="m684.3,288.35v-59.65c0-5.78-3.66-8.36-8.16-5.77-4.51,2.59-8.54,9.36-9.01,15.12l-2.73,33.62c-.33,4.11-3.51,9.12-7.09,11.17-3.64,2.09-7.06.45-7.71-3.63,0,0-.42-2.66-.94-5.95-.52-3.29-3.4-4.53-6.43-2.78-3.04,1.75-6.01,6.48-6.63,10.56l-1.28,8.35c-.63,4.08-3.48,8.74-6.37,10.41-2.89,1.67-5.66-.29-6.19-4.39l-2.46-14.29c-.98-5.7-5.83-7.97-10.84-5.08l-.09.05c-5,2.89-9.06,9.92-9.06,15.69v45.63" style="fill: none; stroke: #e9fffb; stroke-linecap: round; stroke-miterlimit: 10;"/>
            </g>
          </g>
        </g>
      </g>
    </g>
  </g>
</svg>