<?xml version="1.0" encoding="UTF-8"?>
<svg id="Capa_1" data-name="Capa 1" xmlns="http://www.w3.org/2000/svg" viewBox="0 0 346.75 331.51">
  <path d="m325.79,95.15c-3.95.45-7.94.68-11.93.68-5.69,0-11.41-.45-17.08-1.37,12.34,20.89,19.44,45.27,19.44,71.31,0,2.38-.05,4.73-.19,7.07,10.06.49,18.53,3.62,24.76,8.91.5-5.25.76-10.59.76-15.99,0-25.26-5.65-49.19-15.76-70.62Zm-12.36,149.78c-2.53.83-4.72,1.47-6.85,2.01-1.06.29-2.34.64-3.83.95-1.42.29-2.86.43-4.28.43-1.27,0-2.51-.12-3.74-.35-2.17,1.35-4.65,2.41-7.42,3.14-25.66,33.48-66.06,55.06-111.5,55.06-50.68,0-95.08-26.84-119.77-67.08-3.64,3.99-7.68,7.35-12.22,10.14-.03.02-.07.03-.1.05-2.79,1.7-5.62,3.21-8.32,4.58,29.32,46.64,81.26,77.64,140.42,77.64,64.39,0,120.2-36.72,147.65-90.36-3.38,1.46-6.69,2.7-10.02,3.78ZM175.8,25.35c17.63,0,34.48,3.24,50.04,9.19,1.94-.76,3.69-1.18,4.92-1.46,1.6-.5,3.14-.97,4.65-1.42.8-.24,1.61-.49,2.41-.73.07-.02.14-.03.21-.05,4.61-1.37,9.64-2.76,15.36-4.27.03-.02.09-.02.14-.03l1.47-.38c1.84-.47,3.66-.94,5.46-1.37.49-.16,1.07-.33,1.79-.52C237.09,8.89,207.48,0,175.8,0,84.61,0,10.61,73.65,10.06,164.71c8.76-4.51,17.48-9.15,26.13-13.92C43.66,80.27,103.3,25.35,175.8,25.35Z" style="fill: #5a2a7f;"/>
  <path d="m281.04,252.21l-.28.02-4.49.68-4.75.71c-.62.09-1.27.19-1.92.31-2.03.35-4.58.78-7.42.95-.43.02-.85.03-1.28.03-1.72,0-3.42-.21-5.06-.62-.12.02-.24.03-.35.05l-.12.02c-.28.05-.55.09-.85.12-20.94,18.6-48.51,29.91-78.71,29.91-15.5,0-30.31-2.98-43.88-8.39-23.04-9.17-42.53-25.38-55.83-45.96-1.98-3.05-3.81-6.19-5.5-9.43-.42.36-.85.76-1.27,1.16-.45.59-.95,1.18-1.47,1.73-1.61,1.68-3.35,4.25-5.18,6.97l-1.11,1.66c-.03.05-.07.1-.1.16-1.7,2.46-3.5,4.72-5.43,6.81,24.69,40.24,69.09,67.08,119.77,67.08,45.44,0,85.84-21.59,111.5-55.06-1.94.52-4.02.88-6.26,1.09ZM60.72,136.86c12.92-51.54,59.54-89.72,115.09-89.72,7.23,0,14.32.64,21.2,1.89l1.46-1.11c3.71-2.83,8.17-4.3,12.69-4.3,1.18,0,2.36.1,3.52.31,2.95-5.27,7.42-7.96,11.17-9.4-15.55-5.95-32.4-9.19-50.04-9.19-72.51,0-132.15,54.93-139.62,125.44,8.17-4.47,16.25-9.07,24.24-13.75.1-.05.19-.12.29-.17Zm236.07-42.41c-1.13-.16-2.24-.36-3.36-.57-5.22,3.83-10.75,5.5-14.44,6.59-.47.14-.92.28-1.37.42-.69.23-1.37.45-2.06.68,11.95,18.5,18.86,40.55,18.86,64.2,0,2.69-.09,5.36-.28,7.99,5.86-.8,12.74-.99,17.98-.99,1.25,0,2.2,0,2.72.02h.1c.36.02.73.02,1.09.05.14-2.34.19-4.7.19-7.07,0-26.04-7.09-50.42-19.44-71.31Z" style="fill: #8c3a63;"/>
  <path d="m234.79,240.69c-1.3,1.87-2.64,3.78-3.99,5.7-1.09,1.55-2.18,3.16-3.32,4.72-.98,1.35-2.12,2.69-3.63,3.47-3.11,1.5-5.54-1.61-7.25-3.83-1.55-2.02-3.01-4.51-3.16-7.1,5.7-.98,11.4-1.87,17.1-2.54,1.35-.16,2.75-.26,4.25-.41Z" style="fill: #5a2a7f;"/>
  <path d="m266.6,187.99c-1.66-.47-3.32-.88-4.97-1.14-.21-.16-.47-.31-.67-.47-.26-.21-.62-.31-.93-.31-.36-.1-.73-.05-1.04.05-.21.05-.31.05-.47.16-6.68-1.04-13.47-1.14-20.26-.36-2.28-6.74-3.52-13.68-3.58-20.78,0-3.83.36-7.57.88-11.35.21-1.4.26-2.8-.1-4.09,5.8-2.23,11.87-3.58,17.98-4.51,3.21-.52,6.43-.88,9.69-1.3.57-.05,3.26-.41,3.32-.36.52.41.31,4.61.36,5.29.47,6.94.93,13.84,1.4,20.78.41,5.75,1.92,13.27-1.61,18.4Z" style="fill: #5a2a7f;"/>
  <path d="m241.94,234.52c3.32.1,6.63-.1,9.95-.67.93-.16,1.92-.31,2.85-.57-.36-.36-.52-.93-.52-1.55v-.16c0-.41,0-.83-.05-1.24.05-.41.05-.88,0-1.3,0-.31,0-.57-.05-.88,0-.62,0-1.19-.05-1.81-.05-.83-.1-1.66-.16-2.54-.26-3.73-.78-7.41-1.45-11.09-.21-1.24-.47-2.49-.78-3.68-.05-.47-.21-.93-.31-1.4-.16-.62-.31-1.24-.47-1.87-.16-.57-.31-1.14-.47-1.71-.16-.57-.31-1.14-.47-1.66h-.05c0-.31-.1-.57-.21-.83q-.05,0-.1-.05c-.26-.26-.52-.47-.78-.62-1.35-1.14-2.9-1.81-4.56-2.23-1.71-.36-3.47-.52-5.18-.52-.57.36-1.3.41-1.87.26-.21-.05-.36-.1-.52-.21-4.2.1-8.39.31-12.59.26-8.55-.16-17.05-.88-25.44-2.18-.52.36-1.24.52-2.02.36-18.19-4.2-37.05-4.92-55.5-1.76-16.17,2.8-34.77,7.82-42.65,23.68-4.3,12.02,0,25.34,10.62,32.33.31,0,.67.1.98.31,14.04,7.67,30.47,2.8,45.13-.26,14.72-3.11,29.48-6.17,44.2-9.28.26-.47.78-.83,1.5-.98,2.8-.57,5.6-1.09,8.45-1.61.57-.52,1.45-.62,2.23-.36,5.08-.88,10.16-1.66,15.23-2.33,4.25-.57,8.5-.93,12.75-1.5l2.33-.36Z" style="fill: #5a2a7f;"/>
  <path d="m328.84,213.79c-2.44,3.16-6.53,4.97-10.05,6.63-3.83,1.81-7.77,3.42-11.81,4.72-1.87.62-3.73,1.19-5.65,1.66-.93.26-1.87.52-2.85.73.88-1.24,1.4-2.75,1.66-4.3.05,0,.05-.05.05-.1.47-.57.62-1.4.41-2.12,0-.05-.05-.1-.05-.16.41-4.15-.05-8.29-.88-12.38-.41-2.07-.93-4.15-1.5-6.22-.57-1.92-1.04-3.94-2.12-5.65-.47-.67-1.04-1.3-1.71-1.76,5.96-1.35,17.83-1.3,20-1.24,7.15.21,14.82,2.49,16.69,10.31.78,3.42-.05,7.15-2.18,9.9Z" style="fill: #5a2a7f;"/>
  <path d="m284.32,229.6c-.88,1.81-4.77,1.76-6.43,2.02-3.11.47-6.27.93-9.38,1.4-2.49.36-5.08.93-7.62,1.09,0-.1-.05-.21-.05-.36-.1-.52-.26-1.09-.52-1.55-.26-.41-.57-.73-.93-.93-.05-11.04-1.76-22.07-5.13-32.59,0-.05-.05-.1-.1-.16.57-.52,4.25-.47,4.92-.47,2.64-.1,5.34-.26,8.03-.52,4.25-.36,8.5-.93,12.7-1.71.73,3.11,1.4,6.27,1.92,9.43-.05.16-.05.31-.05.47,0,.41.16.83.31,1.19.36,1.66.62,3.26.88,4.92.41,3.01.78,5.96,1.04,8.96.1,1.09.21,2.12.26,3.16-.41.67-.57,1.5-.36,2.23.16.47.41.83.73,1.09.1.83.1,1.71-.21,2.33Z" style="fill: #5a2a7f;"/>
  <path d="m219.19,117.21c3.73-2.95,7.1-6.32,10.26-9.95,4.72,2.02,9.43,4.09,14.15,6.11,2.02.88,4.51,1.61,6.17,3.11.31.31.57.57.78.98,0,.05.05.21.05.26,0,.1.05.16.05.21v.21c-.47.05-.93.26-1.35.73-3.16,3.42-6.06,7.1-8.55,10.99,0,0-.05.05-.1.1-.36.31-.67.73-.88,1.24-.05.1-.05.16-.05.26-1.66,2.59-3.11,5.29-4.35,8.08-.83,1.81-1.5,4.4-3.01,5.86-.31.16-.67.26-.98.41-.05.05-.1.05-.16.1h-.05c-.41.1-.78.31-1.09.62-.26.1-.57.1-.88.1-3.11-.16-20.68-11.47-23.53-12.82l13.53-16.61Z" style="fill: #5a2a7f;"/>
  <path d="m255.57,135.86v.36s-.05,0-.05.05v.05q-.05,0,0,.05t-.05.1c0,.05,0,.21-.05.31,0,.1-.05.16-.05.26l-.05.05v.1s-.05.05-.05.1c-.1.16-.21.36-.26.41,0,.05-.05.16-.1.21v.05q-.05,0-.1.05v.05c-.05,0-.1.05-.16.16,0,0,0,.05-.1.1-.16.05-.31.16-.47.26-.05.05-.1.05-.16.1-.98.05-1.92.26-2.85.52-.78.21-1.61.41-2.44.62-.05-.05-.1-.16-.16-.21,0,0-.05-.05-.1-.1s-.05-.1-.05-.1l-.05-.05c-.1-.1-.16-.26-.26-.36-.16-.26-.31-.57-.47-.83-.05-.1-.1-.21-.16-.31,0,0-.05-.05-.05-.1l-.05-.1c0-.05-.05-.16-.05-.16-.05-.1-.05-.21-.1-.31-.1-.26-.16-.57-.21-.83-.05-.16-.05-.21-.05-.21v-1.14q0-.05.05-.1v-.1c.1-.21.16-.47.21-.67v-.1l.05-.05v-.05l.1-.1c.1-.21.21-.36.31-.52,0,0,0-.05.1-.16.1-.05.16-.16.21-.21,0,0,.21-.16.26-.21.21-.1.47-.26.67-.41.16-.05.26-.1.41-.1.21-.1.47-.16.67-.21.1-.05.21-.05.26-.05h.1c.31,0,.57-.05.88,0h.31c.05.05.1.05.1.05h.21c.1,0,.21,0,.26.05.26.05.47.16.73.21.05,0,.05.05.1.05,0,0,.05,0,.16.05.21.1.41.21.67.36.05,0,.1.05.21.16h.05s.05,0,.05.05.1.05.1.1c.1.05.21.16.31.26.05.05.26.31.41.41v.05h.05c.05.1.1.16.16.26.05.1.21.52.31.57,0,.05,0,.16.05.21.05.1.05.21.1.31v.21c.05.16.05.31.05.52Z" style="fill: #5a2a7f;"/>
  <path d="m183.75,132.03c-.57,8.6-10.21,15.55-16.27,20.47-9.64,7.67-19.17,15.44-28.76,23.11-.31,0-.62.1-.93.31-3.63,2.12-8.19,2.23-12.28,2.64-4.15.41-8.34.73-12.54,1.09-7.93.78-15.75,2.07-23.32,4.77-13.78,5.03-25.86,13.63-36.27,23.84-.26.26-.47.52-.57.83v.05c-3.26,3.42-5.8,7.41-8.45,11.3-3.16,4.56-6.74,8.19-11.45,11.09-5.03,3.06-10.42,5.44-15.65,8.03-1.04.47-2.07.98-3.11,1.5-.67.31-1.35.67-2.02.98-.05,0-.16.05-.21.05-.36-2.44-.57-4.92-1.04-7.41-2.18-10.99-5.39-21.92-8.24-32.8.1-.31.05-.67-.05-.98-.21-.62-.47-1.24-.73-1.92v-.05c-.36-1.66-.83-4.09-1.87-5.91,24.1-11.76,47.78-24.46,70.94-38.03.52,0,1.04-.16,1.5-.52,15.6-12.18,31.92-23.32,48.92-33.47,5.44-3.21,10.88-6.32,16.43-9.28,1.14-.62,2.23-1.24,3.37-1.81,1.87-1.04,3.73-1.97,5.6-2.95.88-.47,1.71-.88,2.59-1.35,3.16-1.61,6.32-3.16,9.53-4.66,1.5-.73,6.17-3.32,10.26-4.66.05.21.1.41.16.57.16.31.31.62.47.88-.88.1-1.76.47-2.44,1.19-.26.26-.52.57-.62.88-.62,1.04-.73,2.23-.52,3.47.21,1.76,1.04,3.58,1.76,4.97,2.38,4.46,6.58,7.67,10.1,11.3v.05c.31.41.57.83.88,1.24.26.36.57.57.93.78,0,.05.05.05.05.05l.05.05c1.09,1.35,2.02,2.8,2.75,4.4.47,1.09.78,2.12.93,3.16-.52.78-.52,1.92.1,2.75Z" style="fill: #5a2a7f;"/>
  <path d="m213.18,117.78v.05c-1.66,2.64-6.32.98-8.65-.93-.62-.52-1.24-1.04-1.87-1.61-.05-.47-.26-.88-.67-1.24,0-.16-.1-.31-.26-.47-.57-.52-1.14-.73-1.76-.73-1.45-1.4-2.95-2.85-4.4-4.2-4.2-3.89-9.28-7.77-12.49-12.7,0,0-.05-.05,0-.05-.05-.21-.16-.41-.26-.62-.16-.26-.36-.52-.67-.67-.41-.78-.78-1.55-1.14-2.38-.83-2.02-1.09-3.63.62-5.29,1.4-1.3,3.01-2.33,4.51-3.47,3.37-2.54,6.74-5.13,10.1-7.67,3.16-2.44,6.37-4.87,9.59-7.31,1.76-1.35,3.52-2.69,5.29-4.04.67,3.73,2.54,7.51,4.46,10.73.05.21.16.36.26.52,4.35,7.36,10.73,13.58,18.24,17.62,1.14.62,2.44,1.35,3.78,1.92-.41.26-.78.52-1.19.78-2.8,1.76-5.49,3.63-8.24,5.44-.57,0-1.04.26-1.4.67l-13.84,15.65Z" style="fill: #8c3a63;"/>
  <path d="m281.22,77.05c-2.85,2.12-6.74,3.01-10,4.04-4.72,1.55-9.53,3.01-14.35,4.3-2.33.67-4.66,1.24-7,1.81-.88.21-2.38.93-3.21.67-.78-.21-1.24-2.18-1.61-2.9-2.18-4.66-4.2-9.33-6.11-14.04-.57-1.4-1.14-2.85-1.66-4.25-.1-.16-.16-.36-.21-.52-.05-.16-.1-.26-.16-.41.05-.21.1-.41.1-.67,0-.88-.47-1.66-1.14-2.12-.78-2.02-1.45-3.99-2.18-6.01-.16-.47-1.09-2.18-.93-2.69.16-.41,2.95-.93,3.52-1.09,2.54-.83,5.08-1.55,7.62-2.33,4.92-1.45,9.85-2.8,14.77-4.09,2.44-.62,4.82-1.24,7.2-1.81,1.09-.31,2.33-.78,3.47-.78,1.55.05,2.07,1.3,2.64,2.54,1.71,3.52,3.16,7.2,4.46,10.93v.16c.16.36.26.78.36,1.14,0,0,0,.05.05.05,1.92,5.91,3.32,12.02,4.35,18.08Z" style="fill: #8c3a63;"/>
  <path id="punta" d="m342.46,69.9c-4.15,2.28-9.43,3.11-14.04,3.89-10.57,1.81-21.35,1.61-31.82-.47.21-.57.21-1.19-.1-1.71.26-1.45.52-2.9.62-4.35.1-.67.16-1.35.21-2.02.1-.67.1-1.4.05-2.12.16-4.35-.31-8.76-1.35-13.06.05-.05.05-.1.05-.16.26-1.71,0-3.42-.83-4.92.26,0,.52.05.78.05,2.49.41,4.92,1.04,7.31,1.71,4.51,1.3,8.91,2.85,13.32,4.46,4.4,1.55,8.86,3.16,13.37,4.4,4.35,1.19,9.59,1.3,13.63,3.52,5.18,2.85,3.21,8.29-1.19,10.78Z" style="fill: #8c3a63;"/>
  <path d="m289.54,174.59c-1.32.31-2.57.75-3.76,1.3,1.37.4,2.67.94,3.9,1.61-.03-1.02-.07-1.99-.14-2.91Z" style="fill: #fff;"/>
  <path d="m289.54,174.59c-1.32.31-2.57.75-3.76,1.3,1.37.4,2.67.94,3.9,1.61-.03-1.02-.07-1.99-.14-2.91Z" style="fill: #fff;"/>
  <path d="m272.68,123.01c-.43-.71-.9-1.4-1.42-2.05-.1.76-.24,1.51-.42,2.24.78.17,1.56.38,2.31.64-.14-.28-.29-.55-.47-.83Z" style="fill: #fff;"/>
  <path d="m197.68,110.65c.43.61.85,1.23,1.25,1.86.03-.19.07-.36.14-.54-.47-.42-.94-.87-1.39-1.32Zm0,0c.43.61.85,1.23,1.25,1.86.03-.19.07-.36.14-.54-.47-.42-.94-.87-1.39-1.32Z" style="fill: #fff;"/>
</svg>