<?xml version="1.0" encoding="UTF-8"?>
<svg id="Capa_1" data-name="Capa 1" xmlns="http://www.w3.org/2000/svg" viewBox="0 0 200 122">
  <path d="m135.42,113.47c-.75,1.08-1.52,2.18-2.3,3.29-.63.9-1.26,1.82-1.91,2.72-.57.78-1.23,1.55-2.09,2-1.79.87-3.2-.93-4.18-2.21-.9-1.17-1.73-2.6-1.82-4.09,3.29-.57,6.58-1.08,9.86-1.46.78-.09,1.58-.15,2.45-.24Z" style="fill: #5a2a7f;"/>
  <path d="m153.77,83.07c-.96-.27-1.91-.51-2.87-.66-.12-.09-.27-.18-.39-.27-.15-.12-.36-.18-.54-.18-.21-.06-.42-.03-.6.03-.12.03-.18.03-.27.09-3.86-.6-7.77-.66-11.69-.21-1.31-3.89-2.03-7.89-2.06-11.98,0-2.21.21-4.36.51-6.55.12-.81.15-1.61-.06-2.36,3.35-1.29,6.84-2.06,10.37-2.6,1.85-.3,3.71-.51,5.59-.75.33-.03,1.88-.24,1.91-.21.3.24.18,2.66.21,3.05.27,4.01.54,7.98.81,11.99.24,3.32,1.11,7.65-.93,10.61Z" style="fill: #5a2a7f;"/>
  <path d="m139.55,109.91c1.91.06,3.83-.06,5.74-.39.54-.09,1.11-.18,1.64-.33-.21-.21-.3-.54-.3-.9v-.09c0-.24,0-.48-.03-.72.03-.24.03-.51,0-.75,0-.18,0-.33-.03-.51,0-.36,0-.69-.03-1.05-.03-.48-.06-.96-.09-1.46-.15-2.15-.45-4.27-.84-6.4-.12-.72-.27-1.43-.45-2.12-.03-.27-.12-.54-.18-.81-.09-.36-.18-.72-.27-1.08-.09-.33-.18-.66-.27-.99-.09-.33-.18-.66-.27-.96h-.03c0-.18-.06-.33-.12-.48t-.06-.03c-.15-.15-.3-.27-.45-.36-.78-.66-1.67-1.05-2.63-1.29-.99-.21-2-.3-2.99-.3-.33.21-.75.24-1.08.15-.12-.03-.21-.06-.3-.12-2.42.06-4.84.18-7.26.15-4.93-.09-9.83-.51-14.67-1.26-.3.21-.72.3-1.17.21-10.49-2.42-21.37-2.84-32.01-1.02-9.32,1.61-20.05,4.51-24.6,13.66-2.48,6.93,0,14.61,6.13,18.65.18,0,.39.06.57.18,8.1,4.42,17.57,1.61,26.03-.15,8.49-1.79,17.01-3.56,25.49-5.35.15-.27.45-.48.87-.57,1.61-.33,3.23-.63,4.87-.93.33-.3.84-.36,1.29-.21,2.93-.51,5.86-.96,8.79-1.34,2.45-.33,4.9-.54,7.35-.87l1.34-.21Z" style="fill: #5a2a7f;"/>
  <path d="m189.67,97.95c-1.4,1.82-3.77,2.87-5.8,3.83-2.21,1.05-4.48,1.97-6.81,2.72-1.08.36-2.15.69-3.26.96-.54.15-1.08.3-1.64.42.51-.72.81-1.58.96-2.48.03,0,.03-.03.03-.06.27-.33.36-.81.24-1.23,0-.03-.03-.06-.03-.09.24-2.39-.03-4.78-.51-7.14-.24-1.2-.54-2.39-.87-3.59-.33-1.11-.6-2.27-1.23-3.26-.27-.39-.6-.75-.99-1.02,3.44-.78,10.28-.75,11.54-.72,4.12.12,8.55,1.43,9.62,5.95.45,1.97-.03,4.12-1.26,5.71Z" style="fill: #5a2a7f;"/>
  <path d="m163.99,107.07c-.51,1.05-2.75,1.02-3.71,1.17-1.79.27-3.62.54-5.41.81-1.43.21-2.93.54-4.39.63,0-.06-.03-.12-.03-.21-.06-.3-.15-.63-.3-.9-.15-.24-.33-.42-.54-.54-.03-6.37-1.02-12.73-2.96-18.8,0-.03-.03-.06-.06-.09.33-.3,2.45-.27,2.84-.27,1.52-.06,3.08-.15,4.63-.3,2.45-.21,4.9-.54,7.32-.99.42,1.79.81,3.62,1.11,5.44-.03.09-.03.18-.03.27,0,.24.09.48.18.69.21.96.36,1.88.51,2.84.24,1.73.45,3.44.6,5.17.06.63.12,1.23.15,1.82-.24.39-.33.87-.21,1.29.09.27.24.48.42.63.06.48.06.99-.12,1.34Z" style="fill: #5a2a7f;"/>
  <path d="m116.59,77.57h-.06s.03,0,.09.03l-.03-.03Zm-3.26,5.32v-.03s-.03,0-.06-.03c.03.03.06.06.06.06Z" style="fill: #5a2a7f;"/>
  <path d="m113.33,82.89s-.03-.03-.06-.06c.03.03.06.03.06.03v.03Z" style="fill: #5a2a7f;"/>
  <path d="m116.53,77.57h.06l.03.03c-.06-.03-.06-.06-.09-.03Z" style="fill: #5a2a7f;"/>
  <path d="m144.57,42.66v.12c-.27.03-.54.15-.78.42-1.82,1.97-3.5,4.09-4.93,6.34,0,0-.03.03-.06.06-.21.18-.39.42-.51.72-.03.06-.03.09-.03.15-.96,1.49-1.79,3.05-2.51,4.66-.48,1.05-.87,2.54-1.73,3.38-.18.09-.39.15-.57.24-.03.03-.06.03-.09.06h-.03c-.24.06-.45.18-.63.36-.15.06-.33.06-.51.06-1.79-.09-3.41-1.23-5.05-2,.33-.66.63-1.34.93-2.03.48-1.05-.27-2-1.11-2.21-.03-.03-.06-.03-.06-.03-.27-.15-.51-.48-.69-.81.03-.06.06-.15.09-.24.51-1.91.57-3.89.6-5.86.03-1.34-.03-2.63-.48-3.8,2.15-1.7,4.09-3.65,5.92-5.74,2.72,1.17,5.44,2.36,8.16,3.53,1.17.51,2.6.93,3.56,1.79.18.18.33.33.45.57,0,.03.03.12.03.15,0,.06.03.09.03.12Z" style="fill: #5a2a7f;"/>
  <path d="m147.41,53v.21s-.03,0-.03.03v.03s-.03,0,0,.03t-.03.06s0,.12-.03.18c0,.06-.03.09-.03.15l-.03.03v.06s-.03.03-.03.06c-.06.09-.12.21-.15.24,0,.03-.03.09-.06.12v.03s-.03,0-.06.03v.03s-.06.03-.09.09c0,0,0,.03-.06.06-.09.03-.18.09-.27.15-.03.03-.06.03-.09.06-.57.03-1.11.15-1.64.3-.45.12-.93.24-1.4.36-.03-.03-.06-.09-.09-.12,0,0-.03-.03-.06-.06s-.03-.06-.03-.06l-.03-.03c-.06-.06-.09-.15-.15-.21-.09-.15-.18-.33-.27-.48-.03-.06-.06-.12-.09-.18,0,0-.03-.03-.03-.06l-.03-.06s-.03-.09-.03-.09c-.03-.06-.03-.12-.06-.18-.06-.15-.09-.33-.12-.48-.03-.09-.03-.12-.03-.12v-.66s0-.03.03-.06v-.06c.06-.12.09-.27.12-.39v-.06l.03-.03v-.03l.06-.06c.06-.12.12-.21.18-.3,0,0,0-.03.06-.09.06-.03.09-.09.12-.12,0,0,.12-.09.15-.12.12-.06.27-.15.39-.24.09-.03.15-.06.24-.06.12-.06.27-.09.39-.12.06-.03.12-.03.15-.03h.06c.18,0,.33-.03.51,0h.18s.06.03.06.03h.12c.06,0,.12,0,.15.03.15.03.27.09.42.12.03,0,.03.03.06.03,0,0,.03,0,.09.03.12.06.24.12.39.21.03,0,.06.03.12.09h.03s.03,0,.03.03.06.03.06.06c.06.03.12.09.18.15.03.03.15.18.24.24v.03h.03c.03.06.06.09.09.15.03.06.12.3.18.33,0,.03,0,.09.03.12.03.06.03.12.06.18v.12c.03.09.03.18.03.3Z" style="fill: #5a2a7f;"/>
  <path d="m105.98,50.79c-.33,4.96-5.89,8.97-9.38,11.81-5.56,4.42-11.06,8.91-16.59,13.33-.18,0-.36.06-.54.18-2.09,1.23-4.72,1.29-7.08,1.52-2.39.24-4.81.42-7.23.63-4.57.45-9.09,1.2-13.45,2.75-7.95,2.9-14.91,7.86-20.92,13.75-.15.15-.27.3-.33.48v.03c-1.88,1.97-3.35,4.27-4.87,6.52-1.82,2.63-3.89,4.72-6.61,6.4-2.9,1.76-6.01,3.14-9.03,4.63-.6.27-1.2.57-1.79.87-.39.18-.78.39-1.17.57-.03,0-.09.03-.12.03-.21-1.4-.33-2.84-.6-4.27-1.26-6.34-3.11-12.64-4.75-18.92.06-.18.03-.39-.03-.57-.12-.36-.27-.72-.42-1.11v-.03C.87,88.42.6,87.01,0,85.97c13.9-6.78,27.56-14.11,40.92-21.94.3,0,.6-.09.87-.3,9-7.02,18.41-13.45,28.21-19.31,3.14-1.85,6.28-3.65,9.47-5.35.66-.36,1.29-.72,1.94-1.05,1.08-.6,2.15-1.14,3.23-1.7.51-.27.99-.51,1.49-.78,1.82-.93,3.65-1.82,5.5-2.69.87-.42,3.56-1.91,5.92-2.69.03.12.06.24.09.33.09.18.18.36.27.51-.51.06-1.02.27-1.4.69-.15.15-.3.33-.36.51-.36.6-.42,1.29-.3,2,.12,1.02.6,2.06,1.02,2.87,1.37,2.57,3.8,4.42,5.83,6.52v.03c.18.24.33.48.51.72.15.21.33.33.54.45,0,.03.03.03.03.03l.03.03c.63.78,1.17,1.61,1.58,2.54.27.63.45,1.23.54,1.82-.3.45-.3,1.11.06,1.58Z" style="fill: #5a2a7f;"/>
  <path d="m137.18,29.57c-.24.15-.45.3-.69.45-1.61,1.02-3.17,2.09-4.75,3.14-.33,0-.6.15-.81.39-1.88,2.33-4,4.42-6.28,6.31-.6.06-1.14.42-1.32,1.08t-.06.06c-.45.36-.54,1.05-.33,1.58v.03c-.96,1.52-3.65.57-4.99-.54-.36-.3-.72-.6-1.08-.93-.03-.27-.15-.51-.39-.72,0-.09-.06-.18-.15-.27-.33-.3-.66-.42-1.02-.42-.84-.81-1.7-1.64-2.54-2.42-2.42-2.24-5.35-4.48-7.2-7.32,0,0-.03-.03,0-.03-.03-.12-.09-.24-.15-.36-.09-.15-.21-.3-.39-.39-.24-.45-.45-.9-.66-1.37-.48-1.17-.63-2.09.36-3.05.81-.75,1.73-1.34,2.6-2,1.94-1.46,3.89-2.96,5.83-4.42,1.82-1.4,3.68-2.81,5.53-4.21,1.02-.78,2.03-1.55,3.05-2.33.39,2.15,1.46,4.33,2.57,6.19.03.12.09.21.15.3,2.51,4.24,6.19,7.83,10.52,10.16.66.36,1.4.78,2.18,1.11Z" style="fill: #8c3a63;"/>
  <path d="m162.2,19.08c-1.64,1.23-3.89,1.73-5.77,2.33-2.72.9-5.5,1.73-8.28,2.48-1.34.39-2.69.72-4.03,1.05-.51.12-1.37.54-1.85.39-.45-.12-.72-1.26-.93-1.67-1.26-2.69-2.42-5.38-3.53-8.1-.33-.81-.66-1.64-.96-2.45-.06-.09-.09-.21-.12-.3-.03-.09-.06-.15-.09-.24.03-.12.06-.24.06-.39,0-.51-.27-.96-.66-1.23-.45-1.17-.84-2.3-1.26-3.47-.09-.27-.63-1.26-.54-1.55.09-.24,1.7-.54,2.03-.63,1.46-.48,2.93-.9,4.39-1.34,2.84-.84,5.68-1.61,8.52-2.36,1.4-.36,2.78-.72,4.15-1.05.63-.18,1.34-.45,2-.45.9.03,1.2.75,1.52,1.46.99,2.03,1.82,4.15,2.57,6.31v.09c.09.21.15.45.21.66,0,0,0,.03.03.03,1.11,3.41,1.91,6.93,2.51,10.43Z" style="fill: #8c3a63;"/>
  <path id="punta" d="m197.53,14.96c-2.39,1.32-5.44,1.79-8.1,2.24-6.1,1.05-12.31.93-18.35-.27.12-.33.12-.69-.06-.99.15-.84.3-1.67.36-2.51.06-.39.09-.78.12-1.17.06-.39.06-.81.03-1.23.09-2.51-.18-5.05-.78-7.53.03-.03.03-.06.03-.09.15-.99,0-1.97-.48-2.84.15,0,.3.03.45.03,1.43.24,2.84.6,4.21.99,2.6.75,5.14,1.64,7.68,2.57,2.54.9,5.11,1.82,7.71,2.54,2.51.69,5.53.75,7.86,2.03,2.99,1.64,1.85,4.78-.69,6.22Z" style="fill: #8c3a63;"/>
</svg>